<svg xmlns="http://www.w3.org/2000/svg" viewBox="0 0 277.95 314.71"><defs><style>.cls-1,.cls-2,.cls-3,.cls-6{fill:#fff;}.cls-1{stroke:#00501f;stroke-miterlimit:10;}.cls-3{font-size:50.37px;}.cls-3,.cls-6{font-family:Audiowide-Regular, Audiowide;}.cls-4{letter-spacing:-0.01em;}.cls-5{letter-spacing:-0.01em;}.cls-6{font-size:29.3px;}.cls-7{letter-spacing:0em;}.cls-8{letter-spacing:0em;}.cls-9{letter-spacing:-0.01em;}</style></defs><title>Asset 3</title><g id="Layer_2" data-name="Layer 2"><g id="Layer_1-2" data-name="Layer 1"><polyline class="cls-1" points="176.8 177.46 176.69 177.46 176.8 177.4"/><polygon class="cls-2" points="276.96 70.73 138.48 0 0 70.73 138.48 141.47 257.82 80.51 257.82 159.37 276.96 159.37 276.96 70.85 276.74 70.85 276.96 70.73"/><polygon class="cls-2" points="139.04 212.58 239.25 160.62 239.25 112.13 139.04 163.85 37.72 112.13 37.72 160.62 37.72 163.85 139.04 212.58"/><text class="cls-3" transform="translate(0.19 270.95) scale(1.13 1)">MA<tspan class="cls-4" x="90.52" y="0">S</tspan><tspan x="129.35" y="0">TE</tspan><tspan class="cls-5" x="203.98" y="0">R</tspan></text><text class="cls-6" transform="translate(3.55 306.35) scale(1.13 1)">in sp<tspan class="cls-7" x="75.05" y="0">r</tspan><tspan class="cls-8" x="90.97" y="0">e</tspan><tspan x="110" y="0">adshee</tspan><tspan class="cls-9" x="226.1" y="0">t</tspan></text></g></g></svg>